<?xml version="1.0" encoding="UTF-8" standalone="no"?>
<svg
   width="16"
   height="16"
   viewBox="0 0 16 16"
   version="1.1"
   id="svg4"
   sodipodi:docname="github_icon.svg"
   inkscape:version="1.2.2 (732a01da63, 2022-12-09)"
   xmlns:inkscape="http://www.inkscape.org/namespaces/inkscape"
   xmlns:sodipodi="http://sodipodi.sourceforge.net/DTD/sodipodi-0.dtd"
   xmlns="http://www.w3.org/2000/svg"
   xmlns:svg="http://www.w3.org/2000/svg">
  <defs
     id="defs8" />
  <sodipodi:namedview
     id="namedview6"
     pagecolor="#ffffff"
     bordercolor="#666666"
     borderopacity="1.0"
     inkscape:showpageshadow="2"
     inkscape:pageopacity="0.0"
     inkscape:pagecheckerboard="0"
     inkscape:deskcolor="#d1d1d1"
     showgrid="false"
     inkscape:zoom="19.379145"
     inkscape:cx="5.5213994"
     inkscape:cy="5.9600153"
     inkscape:window-width="944"
     inkscape:window-height="1042"
     inkscape:window-x="0"
     inkscape:window-y="0"
     inkscape:window-maximized="0"
     inkscape:current-layer="svg4" />
  <path
     style="fill:#373737;fill-opacity:1;stroke-width:0.452665;stroke-linecap:round;stroke-linejoin:bevel"
     d="M 5.5708754,14.288217 C 3.3543444,13.443157 1.738292,11.579644 1.2141973,9.2644158 1.1223098,8.8584957 1.1094739,8.6841378 1.1095849,7.8433999 1.1097258,6.7765149 1.1505502,6.5011969 1.4328965,5.6630001 2.3174946,3.036909 4.7646775,1.1603664 7.5312055,0.98671053 8.8488796,0.90399967 10.049644,1.1439512 11.180074,1.7158725 c 0.684656,0.3463892 1.20152,0.7198391 1.757842,1.2700931 0.555519,0.5494579 0.933865,1.0614271 1.282292,1.7351656 0.435878,0.8428397 0.672467,1.6755148 0.743488,2.6167078 0.149832,1.9856492 -0.573319,3.915744 -2.00219,5.343857 -0.703101,0.702727 -1.396045,1.166443 -2.271974,1.520401 -0.536831,0.216931 -0.625162,0.229272 -0.7761754,0.108435 l -0.1063885,-0.08513 -0.022532,-1.33007 C 9.7629433,11.626624 9.7571245,11.555007 9.6583064,11.342952 9.6013282,11.220681 9.5125748,11.07628 9.461077,11.022062 l -0.093632,-0.09858 0.1070996,-0.02053 c 0.6956594,-0.133344 0.9225604,-0.189509 1.2111884,-0.299809 0.858996,-0.328268 1.461719,-1.0024203 1.690253,-1.8905662 0.291502,-1.1328539 0.147269,-2.1774331 -0.39826,-2.884319 l -0.155972,-0.2021052 0.0675,-0.2842873 C 12.017711,4.8008349 11.871265,3.814749 11.654465,3.7609291 11.393481,3.6961411 10.772997,3.8945742 10.173592,4.2345174 L 9.7751881,4.4604662 9.4364613,4.3911803 C 8.5292086,4.2056033 7.6016314,4.2063402 6.6493671,4.3933947 L 6.2854291,4.4648835 6.0218093,4.2980877 C 5.4928291,3.9633947 4.7111486,3.6947138 4.4529069,3.7588212 4.2251196,3.8153685 4.0680357,4.8640972 4.2097333,5.3823039 l 0.064417,0.2355827 -0.1350576,0.1655761 c -0.2016559,0.247223 -0.4300103,0.7500948 -0.5110762,1.125468 -0.1353,0.6265031 -0.011993,1.6956542 0.2671351,2.3162384 0.3810153,0.8471089 1.2163756,1.4216239 2.3317065,1.6036189 0.483924,0.07897 0.4647948,0.06104 0.3147768,0.295011 -0.073245,0.114237 -0.15742,0.314863 -0.1870537,0.445835 -0.052008,0.229861 -0.061075,0.240394 -0.2610659,0.303248 -0.3363846,0.105721 -0.5707117,0.126155 -0.8318319,0.07254 -0.3562985,-0.07316 -0.614385,-0.264332 -0.93055,-0.689283 -0.4465355,-0.600179 -0.8829493,-0.831457 -1.3402188,-0.71025 -0.1628419,0.04316 -0.1307851,0.213897 0.067597,0.360021 0.3511868,0.258677 0.5902456,0.550239 0.802245,0.978441 0.2476951,0.5003 0.4620917,0.727019 0.8235021,0.87083 0.2263787,0.09008 0.3319523,0.101668 0.9204151,0.101026 l 0.6647061,-7.27e-4 v 0.67771 0.677709 l -0.1187395,0.09238 c -0.1492087,0.116087 -0.242099,0.113674 -0.5797652,-0.01506 z"
     id="path375" />
</svg>
