<?xml version="1.0" encoding="UTF-8" standalone="no"?>
<svg
   width="16"
   height="16"
   viewBox="0 0 16 16"
   fill="currentColor"
   version="1.1"
   id="svg4"
   sodipodi:docname="twitter_icon.svg"
   inkscape:version="1.2.2 (732a01da63, 2022-12-09)"
   xmlns:inkscape="http://www.inkscape.org/namespaces/inkscape"
   xmlns:sodipodi="http://sodipodi.sourceforge.net/DTD/sodipodi-0.dtd"
   xmlns="http://www.w3.org/2000/svg"
   xmlns:svg="http://www.w3.org/2000/svg">
  <defs
     id="defs8" />
  <sodipodi:namedview
     id="namedview6"
     pagecolor="#ffffff"
     bordercolor="#666666"
     borderopacity="1.0"
     inkscape:showpageshadow="2"
     inkscape:pageopacity="0.0"
     inkscape:pagecheckerboard="0"
     inkscape:deskcolor="#d1d1d1"
     showgrid="false"
     inkscape:zoom="16"
     inkscape:cx="8.0625"
     inkscape:cy="8.96875"
     inkscape:window-width="944"
     inkscape:window-height="1042"
     inkscape:window-x="0"
     inkscape:window-y="0"
     inkscape:window-maximized="0"
     inkscape:current-layer="svg4" />
  <path
     style="fill:#373733;fill-opacity:1;stroke-width:0.439657;stroke-linecap:round;stroke-linejoin:bevel"
     d="M 5.3913322,12.498256 C 4.2554188,12.329069 3.6393853,12.152041 2.9154824,11.786776 l -0.4528386,-0.22849 0.5505053,-0.02932 c 0.8219307,-0.04379 1.4125456,-0.186028 2.0478799,-0.493213 0.3135746,-0.151615 0.8587883,-0.490043 0.8587883,-0.533073 0,-0.01302 -0.1648659,-0.05407 -0.3663687,-0.09123 C 5.351946,10.374281 5.051906,10.280845 4.8866933,10.203813 4.4875426,10.017703 4.0060198,9.5550294 3.8111105,9.1703341 L 3.6694133,8.8906642 4.1756292,8.8679262 C 4.6193017,8.8479981 4.7902126,8.8173556 4.7270558,8.7690621 4.7169635,8.7613077 4.5798874,8.7102702 4.4224428,8.6555648 3.6488097,8.3867561 3.0450336,7.7357314 2.8606565,6.9715603 2.8241324,6.8201821 2.7939556,6.6454847 2.793598,6.583345 L 2.792947,6.470363 3.0846358,6.5738021 C 3.2450647,6.630693 3.4948739,6.6893465 3.6397675,6.7041424 L 3.9032105,6.7310412 3.5790632,6.4124999 C 3.0146274,5.8578311 2.8171759,5.3686331 2.8450213,4.5938726 2.859864,4.1809057 2.8794408,4.0779135 2.9868253,3.8478603 L 3.1114095,3.5809594 3.5357139,4.0011121 c 0.6178762,0.6118306 1.183693,1.0040432 1.9877396,1.3778611 0.7546047,0.3508314 1.5289819,0.5617086 2.3296629,0.6344102 L 8.1775142,6.0428419 8.1470113,5.7241955 C 8.0848398,5.0747317 8.3146873,4.3841369 8.7556227,3.8955734 9.6070855,2.9521391 11.101474,2.8464403 12.107349,3.6585037 c 0.120305,0.097125 0.249226,0.176591 0.28649,0.176591 0.142167,0 0.707949,-0.1757822 1.036275,-0.3219591 0.188335,-0.08385 0.350625,-0.1444467 0.360645,-0.134657 0.01002,0.00979 -0.03468,0.1197718 -0.09932,0.2444064 -0.127503,0.2458189 -0.471969,0.6274646 -0.737792,0.817424 -0.09173,0.065554 -0.151184,0.1280557 -0.132121,0.1388986 0.05184,0.029483 0.822241,-0.132013 1.071977,-0.2247201 0.119809,-0.044475 0.217835,-0.065262 0.217835,-0.046202 0,0.055849 -0.817229,0.8794687 -0.982275,0.9899552 l -0.150778,0.1009352 -0.02583,0.6700897 c -0.02789,0.7231348 -0.104415,1.1341414 -0.338452,1.817633 -0.511764,1.4945833 -1.536698,2.7971424 -2.8449689,3.6155894 -0.7633636,0.477555 -1.7915168,0.831876 -2.7912737,0.961926 -0.4227106,0.05499 -1.316455,0.07405 -1.5864261,0.03384 z"
     id="path926" />
</svg>
